<svg width="414" height="187" viewBox="0 0 414 187" fill="none" xmlns="http://www.w3.org/2000/svg">
<g opacity="0.2">
<mask id="mask0_21038_9760" style="mask-type:alpha" maskUnits="userSpaceOnUse" x="0" y="0" width="414" height="187">
<path d="M0 187C0 112.749 0 137.707 0 18.2309C6.40213 12.0076 9.67441 8.65642 17.9557 0.274918C17.9557 5.16129 18.0308 13.1135 18.0308 17.8539C18.0308 59.8483 359.34 19.0206 412.24 19.0206C413.561 117.093 412.132 133.557 413.561 187C247.758 187 128.746 187 0 187Z" fill="white"/>
</mask>
<g mask="url(#mask0_21038_9760)">
<path fill-rule="evenodd" clip-rule="evenodd" d="M447.953 170.819L445.314 168.179L207.994 405.499L210.633 408.138L447.953 170.819ZM273.77 -3.36389L271.131 -6.00303L33.8113 231.317L36.4505 233.956L273.77 -3.36389ZM360.861 83.7274L358.222 81.0882L120.903 318.408L123.542 321.047L360.861 83.7274ZM186.679 -90.4551L184.04 -93.0943L-53.2799 144.225L-50.6408 146.865L186.679 -90.4551ZM404.407 127.273L401.768 124.634L164.448 361.954L167.087 364.593L404.407 127.273ZM230.225 -46.9095L227.585 -49.5486L-9.73429 187.771L-7.09516 190.41L230.225 -46.9095ZM317.316 40.1817L314.677 37.5426L77.357 274.862L79.9961 277.501L317.316 40.1817ZM143.133 -134.001L140.494 -136.64L-96.8255 100.68L-94.1864 103.319L143.133 -134.001ZM426.18 149.046L423.541 146.407L186.221 383.726L188.86 386.366L426.18 149.046ZM251.997 -25.1367L249.358 -27.7758L12.0385 209.544L14.6777 212.183L251.997 -25.1367ZM339.089 61.9545L336.449 59.3154L99.1298 296.635L101.769 299.274L339.089 61.9545ZM164.906 -112.228L162.267 -114.867L-75.0527 122.453L-72.4136 125.092L164.906 -112.228ZM382.634 105.5L379.995 102.861L142.675 340.181L145.315 342.82L382.634 105.5ZM208.452 -68.6823L205.813 -71.3215L-31.5071 165.998L-28.868 168.637L208.452 -68.6823ZM295.543 18.4089L292.904 15.7698L55.5841 253.089L58.2233 255.729L295.543 18.4089ZM121.36 -155.774L118.721 -158.413L-118.598 78.907L-115.959 81.5461L121.36 -155.774ZM440.695 163.561L438.056 160.922L200.736 398.242L203.375 400.881L440.695 163.561ZM266.513 -10.6215L263.873 -13.2606L26.5537 224.059L29.1929 226.698L266.513 -10.6215ZM353.604 76.4698L350.965 73.8306L113.645 311.15L116.284 313.789L353.604 76.4698ZM179.421 -97.7127L176.782 -100.352L-60.5375 136.968L-57.8984 139.607L179.421 -97.7127ZM397.149 120.015L394.51 117.376L157.191 354.696L159.83 357.335L397.149 120.015ZM222.967 -54.1671L220.328 -56.8062L-16.9919 180.513L-14.3528 183.153L222.967 -54.1671ZM310.058 32.9241L307.419 30.285L70.0993 267.605L72.7385 270.244L310.058 32.9241ZM135.876 -141.258L133.237 -143.898L-104.083 93.4222L-101.444 96.0614L135.876 -141.258ZM418.922 141.788L416.283 139.149L178.963 376.469L181.603 379.108L418.922 141.788ZM244.74 -32.3943L242.101 -35.0334L4.78092 202.286L7.42006 204.925L244.74 -32.3943ZM331.831 54.6969L329.192 52.0578L91.8722 289.378L94.5113 292.017L331.831 54.6969ZM157.649 -119.486L155.009 -122.125L-82.3103 115.195L-79.6712 117.834L157.649 -119.486ZM375.377 98.2426L372.737 95.6034L135.418 332.923L138.057 335.562L375.377 98.2426ZM201.194 -75.9399L198.555 -78.5791L-38.7647 158.741L-36.1256 161.38L201.194 -75.9399ZM288.285 11.1513L285.646 8.51219L48.3265 245.832L50.9657 248.471L288.285 11.1513ZM114.103 -163.031L111.464 -165.67L-125.856 71.6494L-123.217 74.2885L114.103 -163.031ZM433.437 156.303L430.798 153.664L193.479 390.984L196.118 393.623L433.437 156.303ZM259.255 -17.8791L256.616 -20.5182L19.2961 216.801L21.9353 219.441L259.255 -17.8791ZM346.346 69.2122L343.707 66.573L106.387 303.893L109.027 306.532L346.346 69.2122ZM172.164 -104.97L169.525 -107.609L-67.7951 129.71L-65.156 132.349L172.164 -104.97ZM389.892 112.758L387.253 110.119L149.933 347.438L152.572 350.077L389.892 112.758ZM215.709 -61.4247L213.07 -64.0638L-24.2495 173.256L-21.6104 175.895L215.709 -61.4247ZM302.801 25.6665L300.161 23.0274L62.8418 260.347L65.4809 262.986L302.801 25.6665ZM128.618 -148.516L125.979 -151.155L-111.341 86.1646L-108.702 88.8037L128.618 -148.516ZM411.665 134.531L409.026 131.891L171.706 369.211L174.345 371.85L411.665 134.531ZM237.482 -39.6519L234.843 -42.291L-2.47668 195.029L0.162438 197.668L237.482 -39.6519ZM324.573 47.4393L321.934 44.8002L84.6146 282.12L87.2537 284.759L324.573 47.4393ZM150.391 -126.743L147.752 -129.382L-89.5679 107.937L-86.9288 110.577L150.391 -126.743ZM368.119 90.985L365.48 88.3458L128.16 325.666L130.799 328.305L368.119 90.985ZM193.937 -83.1975L191.297 -85.8366L-46.0223 151.483L-43.3832 154.122L193.937 -83.1975ZM281.028 3.89371L278.389 1.25459L41.0689 238.574L43.7081 241.213L281.028 3.89371ZM106.845 -170.289L104.206 -172.928L-133.114 64.3918L-130.474 67.0309L106.845 -170.289Z" fill="#37CC3A"/>
</g>
</g>
</svg>
