<svg width="104" height="104" viewBox="0 0 104 104" fill="none" xmlns="http://www.w3.org/2000/svg">
<circle opacity="0.5" cx="52" cy="52" r="51.5" fill="#1E212A" stroke="#556068" stroke-dasharray="5 5"/>
<circle cx="52" cy="52" r="34" fill="#202229"/>
<g clip-path="url(#clip0_21058_9811)">
<path fill-rule="evenodd" clip-rule="evenodd" d="M41.7162 63.9999C40.3865 64.0014 39.1665 63.6576 38.1183 62.825C36.8312 61.8026 36.0663 60.4643 36.0326 58.8192C35.9775 56.1345 36.009 53.6341 36.008 50.9484C36.0073 49.0548 35.9836 47.1606 36.0235 45.2679C36.0781 42.674 38.0671 40.4687 40.6476 40.0881C41.0099 40.0347 41.3793 40.0055 41.7455 40.0051C46.723 39.9998 57.2799 40.0039 62.2574 40C63.7054 39.9988 65.0165 40.3934 66.1087 41.3587C67.3121 42.4225 67.9803 43.7677 67.9851 45.384C67.9986 49.9052 68.0145 54.2407 67.9749 58.7617C67.9526 61.3095 65.9074 63.5486 63.3839 63.909C62.9926 63.9649 62.5943 63.994 62.199 63.9953C59.7199 64.0028 57.2408 63.9991 54.7618 63.9991C52.2731 63.9991 44.2049 63.9971 41.7162 63.9999Z" fill="#37CC3A"/>
<path fill-rule="evenodd" clip-rule="evenodd" d="M48.0004 52.1199C48.0006 50.4547 47.9989 48.7895 48.0013 47.1243C48.0022 46.4982 48.3442 46.0335 48.9066 46.0015C49.1727 45.9863 49.4831 46.0882 49.7149 46.2314C52.2331 47.7859 54.7395 49.3591 57.249 50.9273C57.4179 51.0328 57.5875 51.1371 57.7549 51.2448C58.4854 51.7155 58.4877 52.5897 57.7486 53.0631C56.9256 53.5901 56.092 54.1006 55.2633 54.6188C53.4063 55.7797 51.5501 56.942 49.6922 58.1015C49.1878 58.4163 48.7462 58.3962 48.3439 58.0506C48.0558 57.8029 48.0014 57.4675 48.0011 57.1155C47.9997 55.4503 48.0004 53.7851 48.0004 52.1199Z" fill="#E5FCE3"/>
</g>
<defs>
<clipPath id="clip0_21058_9811">
<rect width="32" height="24" fill="white" transform="translate(36 40)"/>
</clipPath>
</defs>
</svg>
