<svg width="104" height="104" viewBox="0 0 104 104" fill="none" xmlns="http://www.w3.org/2000/svg">
<circle opacity="0.5" cx="52" cy="52" r="51.5" fill="#1E212A" stroke="#556068" stroke-dasharray="5 5"/>
<circle cx="52" cy="52" r="34" fill="#202229"/>
<path fill-rule="evenodd" clip-rule="evenodd" d="M50.0004 51.6549C50.0006 49.504 49.9989 47.3531 50.0013 45.2022C50.0022 44.3936 50.3442 43.7933 50.9066 43.7519C51.1727 43.7323 51.4831 43.8639 51.7149 44.0488C54.2331 46.0568 56.7395 48.0889 59.249 50.1145C59.4179 50.2507 59.5875 50.3854 59.7549 50.5246C60.4854 51.1326 60.4877 52.2617 59.7486 52.8732C58.9256 53.5538 58.092 54.2133 57.2633 54.8826C55.4063 56.3822 53.5501 57.8835 51.6922 59.3811C51.1878 59.7877 50.7462 59.7618 50.3439 59.3153C50.0558 58.9954 50.0014 58.5621 50.0011 58.1075C49.9997 55.9566 50.0004 53.8057 50.0004 51.6549Z" fill="#E5FCE3"/>
<g clip-path="url(#clip0_21060_9775)">
<path fill-rule="evenodd" clip-rule="evenodd" d="M68 50.908C67.9289 54.5563 66.86 57.7004 64.6457 60.4293C62.2129 63.4276 59.06 65.2115 55.2659 65.8112C51.9621 66.3334 48.8157 65.7674 45.8669 64.1736C45.6042 64.0317 45.388 64.0083 45.1007 64.1067C43.3468 64.708 41.5845 65.2848 39.8258 65.8725C39.4026 66.0139 38.9882 66.0561 38.592 65.7987C38.057 65.4512 37.8909 64.9016 38.1216 64.2012C38.5784 62.8142 39.0423 61.4294 39.5037 60.0438C39.646 59.6169 39.8055 59.1951 39.9247 58.7619C39.9657 58.6128 39.9591 58.4091 39.8879 58.277C39.1049 56.8239 38.5589 55.2878 38.2546 53.6677C37.8297 51.4044 37.9401 49.1573 38.5597 46.9447C39.2483 44.4852 40.4941 42.3346 42.2778 40.5048C43.9085 38.8319 45.841 37.6276 48.0355 36.8391C49.9884 36.1374 52.0107 35.8962 54.0674 36.0396C56.8448 36.2332 59.3858 37.1506 61.659 38.7631C64.5333 40.8018 66.4312 43.5482 67.4235 46.9196C67.6211 47.5911 67.7478 48.2886 67.8453 48.9828C67.9413 49.6664 67.9589 50.3611 68 50.908Z" fill="#37CC3A"/>
<path fill-rule="evenodd" clip-rule="evenodd" d="M49.2465 51.4533C49.2488 52.3767 48.51 53.1261 47.5834 53.1404C46.649 53.1549 45.8675 52.3923 45.8584 51.4571C45.8494 50.526 46.615 49.7553 47.5573 49.7469C48.4936 49.7385 49.2442 50.4968 49.2465 51.4533ZM57.6235 51.4307C57.6282 50.4858 58.3847 49.7418 59.3356 49.7468C60.2617 49.7514 61.0264 50.5422 61.0115 51.4795C60.9973 52.3897 60.2256 53.1427 59.3091 53.1405C58.3656 53.1384 57.6187 52.3809 57.6235 51.4307ZM55.1279 51.4669C55.1227 52.3809 54.3653 53.1318 53.4429 53.137C52.5041 53.1421 51.7385 52.3792 51.7397 51.4397C51.7408 50.5018 52.5022 49.7471 53.4477 49.7467C54.3787 49.7464 55.1333 50.5189 55.1279 51.4669Z" fill="#E5FCE3"/>
</g>
<defs>
<clipPath id="clip0_21060_9775">
<rect width="30" height="30" fill="white" transform="translate(38 36)"/>
</clipPath>
</defs>
</svg>
